<svg xmlns="http://www.w3.org/2000/svg" version="1.1" width="96" height="96" viewbox="0 0 96 96"><rect x="0" y="0" width="96" height="96" fill="#FFFFFF"></rect><g transform="translate(23.4, 60.60000000000001)"><path d="M27.94-33.46L27.94-33.46Q27.94-33.6 28.42-34.08 28.9-34.56 29.04-34.56 29.18-34.56 29.86-34.13L29.86-34.13Q32.54-32.4 35.86-31.92L35.86-31.92Q36.58-31.78 38.16-31.78L38.16-31.78Q41.09-31.78 44.06-33.02L44.06-33.02Q44.54-33.31 44.83-33.31L44.83-33.31Q45.22-33.31 45.31-32.88L45.31-32.88Q45.31-32.74 45.12-32.21L45.12-32.21Q43.82-29.47 43.82-26.16L43.82-26.16Q43.82-21.65 46.13-17.86L46.13-17.86Q46.56-17.18 46.56-17.04 46.56-16.9 46.08-16.42 45.6-15.94 45.46-15.94L45.46-15.94Q45.12-15.94 44.59-16.75L44.59-16.75Q41.95-20.93 41.95-25.97L41.95-25.97 41.95-27.22Q41.95-28.37 42.14-28.7L42.14-28.7 39.94-26.54Q37.78-24.38 32.3-18.94 26.83-13.49 23.14-9.79L23.14-9.79Q4.18 9.17 3.98 9.26L3.98 9.26Q3.7 9.36 3.6 9.36L3.6 9.36Q3.22 9.36 2.93 9.05 2.64 8.74 2.64 8.35L2.64 8.35Q2.64 8.16 2.69 8.06L2.69 8.06Q2.78 7.82 21.74-11.14L21.74-11.14Q33.98-23.38 37.34-26.76 40.7-30.14 40.66-30.14L40.66-30.14Q39.55-29.9 37.78-29.9L37.78-29.9Q37.01-29.9 36.05-30L36.05-30Q32.06-30.53 28.75-32.59L28.75-32.59Q27.94-33.12 27.94-33.46Z" fill="#404040"></path></g></svg>